<mxfile host="app.diagrams.net" modified="2022-04-20T23:31:04.331Z" agent="5.0 (Windows NT 10.0; Win64; x64) AppleWebKit/537.36 (KHTML, like Gecko) Chrome/100.0.4896.127 Safari/537.36" etag="wtT_9CMmCVdxX-xbAGF_" version="17.4.6" type="github">
  <diagram id="F9Lmq02h1qLxoGkAazGJ" name="Page-1">
    <mxGraphModel dx="1422" dy="762" grid="1" gridSize="10" guides="1" tooltips="1" connect="1" arrows="1" fold="1" page="1" pageScale="1" pageWidth="850" pageHeight="1100" math="0" shadow="0">
      <root>
        <mxCell id="0" />
        <mxCell id="1" parent="0" />
        <mxCell id="DtOBf7YDAijJ-QFpaW7s-1" value="USUARIOS" style="rounded=0;whiteSpace=wrap;html=1;" vertex="1" parent="1">
          <mxGeometry x="130" y="300" width="120" height="60" as="geometry" />
        </mxCell>
        <mxCell id="DtOBf7YDAijJ-QFpaW7s-9" style="edgeStyle=orthogonalEdgeStyle;rounded=0;orthogonalLoop=1;jettySize=auto;html=1;exitX=0.5;exitY=0;exitDx=0;exitDy=0;entryX=0.5;entryY=1;entryDx=0;entryDy=0;" edge="1" parent="1" source="DtOBf7YDAijJ-QFpaW7s-2" target="DtOBf7YDAijJ-QFpaW7s-10">
          <mxGeometry relative="1" as="geometry">
            <mxPoint x="680" y="230" as="targetPoint" />
          </mxGeometry>
        </mxCell>
        <mxCell id="DtOBf7YDAijJ-QFpaW7s-2" value="TUITS" style="rounded=0;whiteSpace=wrap;html=1;" vertex="1" parent="1">
          <mxGeometry x="590" y="300" width="120" height="60" as="geometry" />
        </mxCell>
        <mxCell id="DtOBf7YDAijJ-QFpaW7s-3" value="publicar" style="rhombus;whiteSpace=wrap;html=1;" vertex="1" parent="1">
          <mxGeometry x="360" y="290" width="80" height="80" as="geometry" />
        </mxCell>
        <mxCell id="DtOBf7YDAijJ-QFpaW7s-6" value="" style="endArrow=classic;html=1;rounded=0;exitX=1;exitY=0.5;exitDx=0;exitDy=0;" edge="1" parent="1" source="DtOBf7YDAijJ-QFpaW7s-3">
          <mxGeometry width="50" height="50" relative="1" as="geometry">
            <mxPoint x="425" y="230" as="sourcePoint" />
            <mxPoint x="590" y="330" as="targetPoint" />
          </mxGeometry>
        </mxCell>
        <mxCell id="DtOBf7YDAijJ-QFpaW7s-7" value="BASE DE DATOS" style="rounded=0;whiteSpace=wrap;html=1;" vertex="1" parent="1">
          <mxGeometry x="590" y="30" width="120" height="60" as="geometry" />
        </mxCell>
        <mxCell id="DtOBf7YDAijJ-QFpaW7s-8" value="" style="endArrow=classic;html=1;rounded=0;entryX=0.5;entryY=1;entryDx=0;entryDy=0;exitX=0.5;exitY=0;exitDx=0;exitDy=0;" edge="1" parent="1" source="DtOBf7YDAijJ-QFpaW7s-10" target="DtOBf7YDAijJ-QFpaW7s-7">
          <mxGeometry width="50" height="50" relative="1" as="geometry">
            <mxPoint x="620" y="180" as="sourcePoint" />
            <mxPoint x="570" y="200" as="targetPoint" />
          </mxGeometry>
        </mxCell>
        <mxCell id="DtOBf7YDAijJ-QFpaW7s-10" value="guardar" style="rhombus;whiteSpace=wrap;html=1;" vertex="1" parent="1">
          <mxGeometry x="610" y="150" width="80" height="80" as="geometry" />
        </mxCell>
        <mxCell id="DtOBf7YDAijJ-QFpaW7s-18" value="seguir" style="rhombus;whiteSpace=wrap;html=1;" vertex="1" parent="1">
          <mxGeometry x="110" y="460" width="80" height="80" as="geometry" />
        </mxCell>
        <mxCell id="DtOBf7YDAijJ-QFpaW7s-24" value="" style="endArrow=none;html=1;rounded=0;entryX=0;entryY=0.5;entryDx=0;entryDy=0;" edge="1" parent="1" target="DtOBf7YDAijJ-QFpaW7s-1">
          <mxGeometry width="50" height="50" relative="1" as="geometry">
            <mxPoint x="80" y="500" as="sourcePoint" />
            <mxPoint x="450" y="370" as="targetPoint" />
            <Array as="points">
              <mxPoint x="80" y="330" />
            </Array>
          </mxGeometry>
        </mxCell>
        <mxCell id="DtOBf7YDAijJ-QFpaW7s-25" value="" style="endArrow=none;html=1;rounded=0;entryX=0;entryY=0.5;entryDx=0;entryDy=0;" edge="1" parent="1" target="DtOBf7YDAijJ-QFpaW7s-18">
          <mxGeometry width="50" height="50" relative="1" as="geometry">
            <mxPoint x="80" y="500" as="sourcePoint" />
            <mxPoint x="450" y="370" as="targetPoint" />
            <Array as="points">
              <mxPoint x="80" y="500" />
            </Array>
          </mxGeometry>
        </mxCell>
        <mxCell id="DtOBf7YDAijJ-QFpaW7s-26" value="" style="endArrow=none;html=1;rounded=0;entryX=0.833;entryY=1;entryDx=0;entryDy=0;entryPerimeter=0;exitX=1;exitY=0.5;exitDx=0;exitDy=0;" edge="1" parent="1" source="DtOBf7YDAijJ-QFpaW7s-18" target="DtOBf7YDAijJ-QFpaW7s-1">
          <mxGeometry width="50" height="50" relative="1" as="geometry">
            <mxPoint x="230" y="500" as="sourcePoint" />
            <mxPoint x="450" y="370" as="targetPoint" />
            <Array as="points">
              <mxPoint x="230" y="500" />
            </Array>
          </mxGeometry>
        </mxCell>
        <mxCell id="DtOBf7YDAijJ-QFpaW7s-28" value="" style="endArrow=none;html=1;rounded=0;entryX=0.5;entryY=1;entryDx=0;entryDy=0;" edge="1" parent="1" target="DtOBf7YDAijJ-QFpaW7s-2">
          <mxGeometry width="50" height="50" relative="1" as="geometry">
            <mxPoint x="650" y="510" as="sourcePoint" />
            <mxPoint x="-190" y="470" as="targetPoint" />
            <Array as="points" />
          </mxGeometry>
        </mxCell>
        <mxCell id="DtOBf7YDAijJ-QFpaW7s-30" value="retuits" style="rhombus;whiteSpace=wrap;html=1;" vertex="1" parent="1">
          <mxGeometry x="690" y="470" width="80" height="80" as="geometry" />
        </mxCell>
        <mxCell id="DtOBf7YDAijJ-QFpaW7s-34" value="" style="endArrow=none;html=1;rounded=0;entryX=0;entryY=0.5;entryDx=0;entryDy=0;" edge="1" parent="1" target="DtOBf7YDAijJ-QFpaW7s-30">
          <mxGeometry width="50" height="50" relative="1" as="geometry">
            <mxPoint x="650" y="510" as="sourcePoint" />
            <mxPoint x="700" y="460" as="targetPoint" />
          </mxGeometry>
        </mxCell>
        <mxCell id="DtOBf7YDAijJ-QFpaW7s-35" value="" style="endArrow=classic;html=1;rounded=0;" edge="1" parent="1">
          <mxGeometry width="50" height="50" relative="1" as="geometry">
            <mxPoint x="800" y="510" as="sourcePoint" />
            <mxPoint x="710" y="350" as="targetPoint" />
            <Array as="points">
              <mxPoint x="800" y="350" />
            </Array>
          </mxGeometry>
        </mxCell>
        <mxCell id="DtOBf7YDAijJ-QFpaW7s-36" value="" style="endArrow=none;html=1;rounded=0;exitX=1;exitY=0.5;exitDx=0;exitDy=0;" edge="1" parent="1" source="DtOBf7YDAijJ-QFpaW7s-30">
          <mxGeometry width="50" height="50" relative="1" as="geometry">
            <mxPoint x="750" y="560" as="sourcePoint" />
            <mxPoint x="800" y="510" as="targetPoint" />
          </mxGeometry>
        </mxCell>
        <mxCell id="DtOBf7YDAijJ-QFpaW7s-37" value="1:N" style="text;html=1;align=center;verticalAlign=middle;resizable=0;points=[];autosize=1;strokeColor=none;fillColor=none;" vertex="1" parent="1">
          <mxGeometry x="265" y="300" width="30" height="20" as="geometry" />
        </mxCell>
        <mxCell id="DtOBf7YDAijJ-QFpaW7s-39" value="N:M" style="text;html=1;align=center;verticalAlign=middle;resizable=0;points=[];autosize=1;strokeColor=none;fillColor=none;" vertex="1" parent="1">
          <mxGeometry x="40" y="500" width="40" height="20" as="geometry" />
        </mxCell>
        <mxCell id="DtOBf7YDAijJ-QFpaW7s-40" value="1:N" style="text;html=1;align=center;verticalAlign=middle;resizable=0;points=[];autosize=1;strokeColor=none;fillColor=none;" vertex="1" parent="1">
          <mxGeometry x="655" y="520" width="30" height="20" as="geometry" />
        </mxCell>
        <mxCell id="DtOBf7YDAijJ-QFpaW7s-41" value="COMENTARIS" style="whiteSpace=wrap;html=1;" vertex="1" parent="1">
          <mxGeometry x="900" y="200" width="120" height="60" as="geometry" />
        </mxCell>
        <mxCell id="DtOBf7YDAijJ-QFpaW7s-42" value="LIKES" style="rounded=0;whiteSpace=wrap;html=1;" vertex="1" parent="1">
          <mxGeometry x="900" y="340" width="120" height="60" as="geometry" />
        </mxCell>
        <mxCell id="DtOBf7YDAijJ-QFpaW7s-43" value="" style="endArrow=classic;html=1;rounded=0;exitX=1;exitY=0.5;exitDx=0;exitDy=0;entryX=0.5;entryY=1;entryDx=0;entryDy=0;" edge="1" parent="1" source="DtOBf7YDAijJ-QFpaW7s-1" target="DtOBf7YDAijJ-QFpaW7s-30">
          <mxGeometry width="50" height="50" relative="1" as="geometry">
            <mxPoint x="400" y="420" as="sourcePoint" />
            <mxPoint x="720" y="610" as="targetPoint" />
            <Array as="points">
              <mxPoint x="730" y="640" />
              <mxPoint x="730" y="550" />
            </Array>
          </mxGeometry>
        </mxCell>
        <mxCell id="DtOBf7YDAijJ-QFpaW7s-44" value="" style="endArrow=classic;html=1;rounded=0;entryX=0;entryY=0.5;entryDx=0;entryDy=0;" edge="1" parent="1" target="DtOBf7YDAijJ-QFpaW7s-41">
          <mxGeometry width="50" height="50" relative="1" as="geometry">
            <mxPoint x="710" y="320" as="sourcePoint" />
            <mxPoint x="760" y="270" as="targetPoint" />
            <Array as="points">
              <mxPoint x="840" y="260" />
            </Array>
          </mxGeometry>
        </mxCell>
        <mxCell id="DtOBf7YDAijJ-QFpaW7s-45" value="" style="endArrow=classic;html=1;rounded=0;entryX=0;entryY=0.5;entryDx=0;entryDy=0;" edge="1" parent="1" target="DtOBf7YDAijJ-QFpaW7s-42">
          <mxGeometry width="50" height="50" relative="1" as="geometry">
            <mxPoint x="710" y="320" as="sourcePoint" />
            <mxPoint x="760" y="270" as="targetPoint" />
          </mxGeometry>
        </mxCell>
        <mxCell id="DtOBf7YDAijJ-QFpaW7s-48" value="interactuar" style="rhombus;whiteSpace=wrap;html=1;" vertex="1" parent="1">
          <mxGeometry x="620" y="640" width="80" height="80" as="geometry" />
        </mxCell>
        <mxCell id="DtOBf7YDAijJ-QFpaW7s-49" value="" style="endArrow=none;html=1;rounded=0;exitX=1;exitY=0.5;exitDx=0;exitDy=0;entryX=0;entryY=0.5;entryDx=0;entryDy=0;" edge="1" parent="1" source="DtOBf7YDAijJ-QFpaW7s-1" target="DtOBf7YDAijJ-QFpaW7s-3">
          <mxGeometry width="50" height="50" relative="1" as="geometry">
            <mxPoint x="400" y="420" as="sourcePoint" />
            <mxPoint x="450" y="370" as="targetPoint" />
          </mxGeometry>
        </mxCell>
        <mxCell id="DtOBf7YDAijJ-QFpaW7s-51" value="" style="endArrow=none;html=1;rounded=0;entryX=1;entryY=0.5;entryDx=0;entryDy=0;exitX=0;exitY=0.5;exitDx=0;exitDy=0;" edge="1" parent="1" source="DtOBf7YDAijJ-QFpaW7s-48" target="DtOBf7YDAijJ-QFpaW7s-1">
          <mxGeometry width="50" height="50" relative="1" as="geometry">
            <mxPoint x="400" y="420" as="sourcePoint" />
            <mxPoint x="450" y="370" as="targetPoint" />
            <Array as="points">
              <mxPoint x="320" y="680" />
            </Array>
          </mxGeometry>
        </mxCell>
        <mxCell id="DtOBf7YDAijJ-QFpaW7s-52" value="" style="endArrow=classic;html=1;rounded=0;entryX=0.5;entryY=1;entryDx=0;entryDy=0;" edge="1" parent="1" target="DtOBf7YDAijJ-QFpaW7s-42">
          <mxGeometry width="50" height="50" relative="1" as="geometry">
            <mxPoint x="700" y="680" as="sourcePoint" />
            <mxPoint x="750" y="630" as="targetPoint" />
            <Array as="points">
              <mxPoint x="960" y="680" />
            </Array>
          </mxGeometry>
        </mxCell>
        <mxCell id="DtOBf7YDAijJ-QFpaW7s-53" value="" style="endArrow=classic;html=1;rounded=0;entryX=1.008;entryY=0.617;entryDx=0;entryDy=0;entryPerimeter=0;" edge="1" parent="1" target="DtOBf7YDAijJ-QFpaW7s-41">
          <mxGeometry width="50" height="50" relative="1" as="geometry">
            <mxPoint x="960" y="680" as="sourcePoint" />
            <mxPoint x="1010" y="630" as="targetPoint" />
            <Array as="points">
              <mxPoint x="1080" y="680" />
              <mxPoint x="1080" y="237" />
            </Array>
          </mxGeometry>
        </mxCell>
        <mxCell id="DtOBf7YDAijJ-QFpaW7s-54" value="N:M" style="text;html=1;align=center;verticalAlign=middle;resizable=0;points=[];autosize=1;strokeColor=none;fillColor=none;" vertex="1" parent="1">
          <mxGeometry x="1020" y="650" width="40" height="20" as="geometry" />
        </mxCell>
        <mxCell id="DtOBf7YDAijJ-QFpaW7s-55" value="N:1" style="text;html=1;align=center;verticalAlign=middle;resizable=0;points=[];autosize=1;strokeColor=none;fillColor=none;" vertex="1" parent="1">
          <mxGeometry x="905" y="650" width="30" height="20" as="geometry" />
        </mxCell>
      </root>
    </mxGraphModel>
  </diagram>
</mxfile>
